<svg width="19" height="19" viewBox="0 0 19 19" fill="none" xmlns="http://www.w3.org/2000/svg">
<path d="M17.1791 11.6375L15.9124 10.3708C15.6215 10.0576 15.4529 9.65012 15.4374 9.22287V6.72913C15.4374 3.52288 13.2999 0.791626 9.49992 0.791626C5.69992 0.791626 3.56242 3.44371 3.56242 6.72913V9.49996C3.55509 9.75052 3.45656 9.9898 3.28534 10.1729L1.82075 11.6375C1.67159 11.7836 1.58623 11.9828 1.58325 12.1916V15.0416C1.58325 15.2516 1.66666 15.453 1.81513 15.6014C1.96359 15.7499 2.16496 15.8333 2.37492 15.8333H6.76867C6.87881 16.4779 7.2134 17.0628 7.71324 17.4845C8.21308 17.9061 8.84596 18.1374 9.49992 18.1374C10.1539 18.1374 10.7868 17.9061 11.2866 17.4845C11.7864 17.0628 12.121 16.4779 12.2312 15.8333H16.6249C16.8349 15.8333 17.0362 15.7499 17.1847 15.6014C17.3332 15.453 17.4166 15.2516 17.4166 15.0416V12.1916C17.4136 11.9828 17.3282 11.7836 17.1791 11.6375Z" fill="white" stroke="white" stroke-width="0.008"/>
</svg>
