<svg width="19" height="19" viewBox="0 0 19 19" fill="none" xmlns="http://www.w3.org/2000/svg">
<path fill-rule="evenodd" clip-rule="evenodd" d="M19 9.5C19 14.7467 14.7467 19 9.5 19C4.25329 19 0 14.7467 0 9.5C0 4.25329 4.25329 0 9.5 0C14.7467 0 19 4.25329 19 9.5ZM12.35 6.65C12.35 8.22406 11.0741 9.5 9.5 9.5C7.92594 9.5 6.65 8.22406 6.65 6.65C6.65 5.07599 7.92594 3.8 9.5 3.8C11.0741 3.8 12.35 5.07599 12.35 6.65ZM9.5 17.575C11.1948 17.575 12.7677 17.0529 14.0666 16.1606C14.6403 15.7666 14.8854 15.0159 14.5519 14.405C13.8605 13.1388 12.4357 12.35 9.4999 12.35C6.56421 12.35 5.13947 13.1387 4.44803 14.405C4.1145 15.0159 4.35964 15.7665 4.93331 16.1605C6.23217 17.0528 7.8051 17.575 9.5 17.575Z" fill="white"/>
</svg>
