<svg width="32" height="32" viewBox="0 0 32 32" fill="none" xmlns="http://www.w3.org/2000/svg">
<path fill-rule="evenodd" clip-rule="evenodd" d="M32 16C32 24.8365 24.8365 32 16 32C7.16344 32 0 24.8365 0 16C0 7.16344 7.16344 0 16 0C24.8365 0 32 7.16344 32 16ZM20.8 11.2C20.8 13.851 18.651 16 16 16C13.349 16 11.2 13.851 11.2 11.2C11.2 8.54904 13.349 6.4 16 6.4C18.651 6.4 20.8 8.54904 20.8 11.2ZM16 29.6C18.8544 29.6 21.5035 28.7206 23.691 27.2179C24.6573 26.5542 25.0701 25.2899 24.5085 24.2611C23.344 22.1285 20.9443 20.8 15.9998 20.8C11.0555 20.8 8.65595 22.1283 7.49142 24.2611C6.92968 25.2899 7.34256 26.5541 8.30874 27.2178C10.4963 28.7205 13.1454 29.6 16 29.6Z" fill="white"/>
</svg>
